# AST/ASF file generated using VICON BodyLanguage
# -----------------------------------------------
:version 1.10
:name VICON
:units
  mass 1.0
  length 0.45
  angle deg
:documentation
   .ast/.asf automatically generated from VICON data using
   VICON BodyBuilder and BodyLanguage model FoxedUp or BRILLIANT.MOD
:root
   order TX TY TZ RX RY RZ
   axis XYZ
   position 0 0 0  
   orientation 0 0 0 
:bonedata
  begin
     id 1 
     name lhipjoint
     direction 0.578396 -0.714046 0.394458 
     length 2.21935 
     axis 0 0 0  XYZ
  end
  begin
     id 2 
     name lfemur
     direction 0.34202 -0.939693 0  
     length 6.39105  
     axis 0 0 20  XYZ
    dof rx ry rz
    limits (-160.0 20.0)
           (-70.0 70.0)
           (-60.0 70.0)
  end
  begin
     id 3 
     name ltibia
     direction 0.34202 -0.939693 0   
     length 6.99037   
     axis 0 0 20   XYZ
    dof rx
    limits (-10.0 170.0)
  end
  begin
     id 4 
     name lfoot
     direction 0.0582372 -0.160005 0.985397   
     length 2.06111   
     axis -90 7.62852e-016 20   XYZ
    dof rx rz
    limits (-45.0 90.0)
           (-70.0 20.0)
  end
  begin
     id 5 
     name ltoes
     direction 1.53556e-011 -4.21875e-011 1   
     length 1.04074   
     axis -90 7.62852e-016 20   XYZ
    dof rx
    limits (-90.0 20.0)
  end
  begin
     id 6 
     name rhipjoint
     direction -0.558179 -0.726269 0.40121   
     length 2.182  
     axis 0 0 0  XYZ 
  end
  begin
     id 7 
     name rfemur
     direction -0.34202 -0.939693 0   
     length 6.51172   
     axis 0 0 -20   XYZ
    dof rx ry rz
    limits (-160.0 20.0)
           (-70.0 70.0)
           (-70.0 60.0)
  end
  begin
     id 8 
     name rtibia
     direction -0.34202 -0.939693 0   
     length 7.02607   
     axis 0 0 -20   XYZ
    dof rx
    limits (-10.0 170.0)
 end
 begin
     id 9 
     name rfoot
     direction -0.0788856 -0.216737 0.973038   
     length 1.96734  
     axis -90 -7.62852e-016 -20   XYZ
    dof rx rz
    limits (-45.0 90.0)
           (-20.0 70.0)
  end
  begin
     id 10 
     name rtoes
     direction -1.53567e-011 -4.21783e-011 1   
     length 0.990825   
     axis -90 -7.62852e-016 -20   XYZ
    dof rx
    limits (-90.0 20.0)
  end
  begin
     id 11 
     name lowerback
     direction 0.00668177 0.999323 -0.0361741   
     length 1.7655   
     axis 0 0 0   XYZ
    dof rx ry rz
    limits (-20.0 45.0)
           (-30.0 30.0)
           (-30.0 30.0)
  end
  begin
     id 12 
     name upperback
     direction -0.00222086 0.99851 0.0545167   
     length 1.74912   
     axis 0 0 0   XYZ
    dof rx ry rz
    limits (-20.0 45.0)
           (-30.0 30.0)
           (-30.0 30.0)
  end
  begin
     id 13 
     name thorax
     direction -0.00733971 0.997496 0.0703443   
     length 1.75715   
     axis 0 0 0   XYZ
    dof rx ry rz
    limits (-20.0 45.0)
           (-30.0 30.0)
           (-30.0 30.0)
  end
  begin
     id 14 
     name lowerneck
     direction 0.0279797 0.994795 0.0979765   
     length 1.46939   
     axis 0 0 0   XYZ
    dof rx ry rz
    limits (-20.0 45.0)
           (-30.0 30.0)
           (-30.0 30.0)
  end
  begin
     id 15 
     name upperneck
     direction 0.00339187 0.976776 -0.214238   
     length 1.48018   
     axis 0 0 0   XYZ
    dof rx ry rz
    limits (-20.0 45.0)
           (-30.0 30.0)
           (-30.0 30.0)
  end
  begin
     id 16
     name head
     direction -0.00263506 0.996603 -0.0823096  
     length 1.4976  
     axis 0 0 0   XYZ
    dof rx ry rz
    limits (-20.0 45.0)
           (-30.0 30.0)
           (-30.0 30.0)
  end
  begin
     id 17 
     name lclavicle
     direction 0.894044 0.44508 -0.0508781  
     length 3.03024  
     axis 0 0 0   XYZ
    dof ry rz
    limits (-20.0 10.0)
           (0.0 20.0)
  end
  begin
     id 18 
     name lhumerus
     direction 1 -4.48961e-011 -2.39475e-018   
     length 4.4661   
     axis 180 -30 -90   XYZ
    dof rx ry rz
    limits (-60.0 90.0)
           (-90.0 90.0)
           (-90.0 90.0)
  end
  begin
     id 19
     name lradius
     direction 1 -4.48961e-011 9.29328e-028   
     length 3.41414   
     axis 180 -30 -90   XYZ
    dof rx
    limits (-10.0 170.0)
  end
  begin
     id 20
     name lwrist
     direction 1 -4.48985e-011 1.53461e-026   
     length 1.70707   
     axis -1.09697e-014 90 90   XYZ
    dof ry
    limits (-180.0 0.0)
 end
  begin
     id 21 
     name lhand
     direction 1 -4.48966e-011 3.06923e-026   
     length 0.328298   
     axis -1.95843e-014 90 90   XYZ
    dof rx rz
    limits (-90.0 90.0)
           (-45.0 45.0)
  end
  begin
     id 22 
     name lfingers
     direction 1 -4.48893e-011 6.13845e-026   
     length 0.264682   
     axis -3.91686e-014 90 90   XYZ
    dof rx
    limits (0.0 90.0)
  end
  begin
     id 23
     name lthumb
     direction 0.707107 -6.34876e-011 0.707107   
     length 0.380032   
     axis -90 45 2.85299e-015   XYZ
    dof rx rz
    limits (-45.0 45.0)
           (-45.0 45.0)
  end
  begin
     id 24 
     name rclavicle
     direction -0.936955 0.347862 -0.0332887   
     length 3.26927  
     axis 0 0 0   XYZ 
    dof ry rz
    limits (-10.0 20.0)
           (-20.0 0.0)
  end
  begin
     id 25 
     name rhumerus
     direction -1 -4.4896e-011 1.78637e-018  
     length 4.40431   
     axis 180 30 90   XYZ
    dof rx ry rz
    limits (-90.0 60.0)
           (-90.0 90.0)
           (-90.0 90.0)
  end
  begin
     id 26 
     name rradius
     direction -1 -4.48955e-011 9.34036e-027   
     length 3.04688   
     axis 180 30 90   XYZ
    dof rx
    limits (-10.0 170.0)
  end
  begin
     id 27 
     name rwrist
     direction -1 -4.49011e-011 1.53461e-026   
     length 1.52344   
     axis -1.09697e-014 -90 -90   XYZ
    dof ry
    limits (-180.0 0.0)
  end
  begin
     id 28
     name rhand
     direction -1 -4.48834e-011 3.06923e-026   
     length 0.500489   
     axis -1.95843e-014 -90 -90   XYZ
    dof rx rz
    limits (-90.0 90.0)
           (-45.0 45.0)
  end
  begin
     id 29
     name rfingers
     direction -1 -4.48967e-011 6.13845e-026   
     length 0.403507   
     axis -3.91686e-014 -90 -90   XYZ
    dof rx
    limits (0.0 90.0)
  end
  begin
     id 30
     name rthumb
     direction -0.707107 -6.34826e-011 0.707107   
     length 0.579358   
     axis -90 -45 -2.85299e-015   XYZ
    dof rx rz
    limits (-45.0 45.0)
           (-45.0 45.0)
  end
:hierarchy
  begin
    root lhipjoint rhipjoint lowerback
    lhipjoint lfemur
    lfemur ltibia
    ltibia lfoot
    lfoot ltoes
    rhipjoint rfemur
    rfemur rtibia
    rtibia rfoot
    rfoot rtoes
    lowerback upperback
    upperback thorax
    thorax lowerneck lclavicle rclavicle
    lowerneck upperneck
    upperneck head
    lclavicle lhumerus
    lhumerus lradius
    lradius lwrist
    lwrist lhand lthumb
    lhand lfingers
    rclavicle rhumerus
    rhumerus rradius
    rradius rwrist
    rwrist rhand rthumb
    rhand rfingers
  end

#!OML:ASF H:\IndianDance\Patient Classification 1\Patient 1\Session 1\dancer.ASF
:FULLY-SPECIFIED
:DEGREES
393
root -9.19079 13.6412 10.579 -173.392 19.8968 -174.697
lowerback 8.57046 2.87239 -2.20987
upperback -8.01149 5.40778 7.31909
thorax -14.7908 3.69419 8.28168
lowerneck -11.0194 -13.2742 -8.27354
upperneck 10.8401 -17.2456 5.2351
head 6.23607 -8.32842 1.30103
rclavicle -4.77083e-015 7.15625e-014
rhumerus 29.5083 -53.571 -56.5516
rradius 20.8818
rwrist -42.7724
rhand 1.10064 -7.53228
rfingers 7.12502
rthumb 26.6442 -35.6773
lclavicle -4.77083e-015 7.15625e-014
lhumerus 57.0026 31.3512 1.82889
lradius 65.6669
lwrist -18.7041
lhand -66.8451 -246.251
lfingers 7.12502
lthumb -38.6407 -88.1271
rfemur -50.9131 -27.7631 9.6047
rtibia 76.5346
rfoot -17.5468 -15.7638
rtoes 16.077
lfemur -41.7965 12.3014 -32.7098
ltibia 67.0884
lfoot -25.2238 4.47015
ltoes 26.9846
394
root -9.14184 13.6464 10.5414 -173.366 19.8976 -174.62
lowerback 8.49718 2.8892 -2.27003
upperback -8.01808 5.42474 7.32716
thorax -14.7635 3.71045 8.32469
lowerneck -11.0503 -13.278 -8.225
upperneck 10.9284 -17.2583 5.22644
head 6.26522 -8.33024 1.28557
rclavicle -5.96354e-015 1.01778e-013
rhumerus 34.0603 -56.742 -61.4114
rradius 19.5555
rwrist -39.9161
rhand 0.212089 -8.17065
rfingers 7.12502
rthumb 25.7935 -36.4421
lclavicle -5.96354e-015 1.01778e-013
lhumerus 57.2233 31.3428 1.74773
lradius 65.6717
lwrist -19.5804
lhand -66.7642 -245.222
lfingers 7.12502
lthumb -38.5645 -89.1342
rfemur -50.2436 -27.274 9.52013
rtibia 73.3094
rfoot -17.5767 -16.6608
rtoes 16.2866
lfemur -41.6239 12.3686 -32.4101
ltibia 67.2397
lfoot -25.414 4.47939
ltoes 26.5234
395
root -9.09206 13.6518 10.5048 -173.354 19.8877 -174.58
lowerback 8.41689 2.90843 -2.37504
upperback -8.02364 5.43245 7.3174
thorax -14.7313 3.72411 8.37568
lowerneck -11.0862 -13.2748 -8.17558
upperneck 11.0172 -17.2612 5.21615
head 6.29447 -8.32734 1.27033
rclavicle 5.04913e-014 2.22639e-014
rhumerus 38.7916 -59.381 -66.4575
rradius 18.4805
rwrist -37.507
rhand -0.822024 -8.70271
rfingers 7.12502
rthumb 24.8028 -37.1142
lclavicle 5.04913e-014 2.22639e-014
lhumerus 57.4236 31.3265 1.63889
lradius 65.6847
lwrist -20.3424
lhand -66.6897 -244.502
lfingers 7.12502
lthumb -38.4941 -89.8353
rfemur -49.4182 -26.7518 9.39638
rtibia 69.9309
rfoot -17.425 -17.3969
rtoes 16.4729
lfemur -41.4221 12.4092 -32.14
ltibia 67.3483
lfoot -25.6122 4.51116
ltoes 26.083
396
root -9.04074 13.658 10.4692 -173.347 19.8726 -174.558
lowerback 8.31999 2.93584 -2.52239
upperback -8.028 5.44207 7.29838
thorax -14.691 3.74156 8.44087
lowerneck -11.1147 -13.2716 -8.14574
upperneck 11.0999 -17.2627 5.21502
head 6.32308 -8.32414 1.26123
rclavicle -7.79236e-014 9.70069e-014
rhumerus 43.647 -61.5609 -71.6427
rradius 17.6412
rwrist -35.4001
rhand -1.9244 -9.12207
rfingers 7.12502
rthumb 23.7459 -37.675
lclavicle -7.79236e-014 9.70069e-014
lhumerus 57.6195 31.2977 1.53008
lradius 65.7006
lwrist -20.9793
lhand -66.6212 -243.989
lfingers 7.12502
lthumb -38.4295 -269.67
rfemur -48.444 -26.1739 9.25087
rtibia 66.4077
rfoot -17.014 -17.9951
rtoes 16.4758
lfemur -41.2009 12.4355 -31.8798
ltibia 67.4209
lfoot -25.8215 4.55001
ltoes 25.6703
397
root -8.98789 13.6649 10.4346 -173.344 19.8369 -174.555
lowerback 8.20523 2.96284 -2.70788
upperback -8.0308 5.44201 7.26844
thorax -14.6385 3.7564 8.51861
lowerneck -11.1409 -13.2611 -8.12087
upperneck 11.1755 -17.2548 5.22321
head 6.34975 -8.31606 1.25708
rclavicle -5.66536e-014 1.90833e-014
rhumerus 48.1239 -63.1828 -76.4302
rradius 17.0281
rwrist -33.7109
rhand -3.0832 -9.46156
rfingers 7.12502
rthumb 22.6341 -38.1544
lclavicle -5.66536e-014 1.90833e-014
lhumerus 57.808 31.2587 1.416
lradius 65.7164
lwrist -21.4855
lhand -66.5444 -243.74
lfingers 7.12502
lthumb -38.357 -269.441
rfemur -47.3208 -25.5408 9.06232
rtibia 62.7701
rfoot -16.0542 -18.4028
rtoes 15.6898
lfemur -40.9597 12.4323 -31.628
ltibia 67.4628
lfoot -26.0406 4.59304
ltoes 25.3014
398
root -8.93356 13.6725 10.4009 -173.338 19.7796 -174.554
lowerback 8.06526 2.98642 -2.9166
upperback -8.03155 5.43241 7.23349
thorax -14.5676 3.76788 8.60719
lowerneck -11.1622 -13.2405 -8.09044
upperneck 11.24 -17.2337 5.22854
head 6.37046 -8.30205 1.25366
rclavicle 4.87022e-014 1.49486e-013
rhumerus 51.7192 -64.2586 -80.2814
rradius 16.6091
rwrist -32.4684
rhand -4.29428 -9.76908
rfingers 7.12502
rthumb 21.4713 -38.5991
lclavicle 4.87022e-014 1.49486e-013
lhumerus 57.9883 31.2124 1.30466
lradius 65.7217
lwrist -21.8854
lhand -66.4657 -243.695
lfingers 7.12502
lthumb -38.2828 -269.417
rfemur -46.0679 -24.8267 8.82324
rtibia 59.0881
rfoot -13.9946 -18.4772
rtoes 15.1448
lfemur -40.7091 12.4039 -31.3696
ltibia 67.483
lfoot -26.2671 4.63751
ltoes 24.9269
